<svg xmlns="http://www.w3.org/2000/svg" width="900" height="420">
<rect width="100%" height="100%" fill="#ffffff"/>
<text x="450" y="20" text-anchor="middle" font-family="Arial" font-size="18">Valencia Marathon Waitlist Position</text>
<line x1="80" y1="30" x2="80" y2="350" stroke="#666"/>
<line x1="80" y1="350" x2="870" y2="350" stroke="#666"/>
<line x1="80" y1="30.0" x2="870" y2="30.0" stroke="#eee"/>
<text x="70" y="34.0" text-anchor="end" font-family="Arial" font-size="12">46</text>
<line x1="80" y1="110.0" x2="870" y2="110.0" stroke="#eee"/>
<text x="70" y="114.0" text-anchor="end" font-family="Arial" font-size="12">8284</text>
<line x1="80" y1="190.0" x2="870" y2="190.0" stroke="#eee"/>
<text x="70" y="194.0" text-anchor="end" font-family="Arial" font-size="12">16523</text>
<line x1="80" y1="270.0" x2="870" y2="270.0" stroke="#eee"/>
<text x="70" y="274.0" text-anchor="end" font-family="Arial" font-size="12">24762</text>
<line x1="80" y1="350.0" x2="870" y2="350.0" stroke="#eee"/>
<text x="70" y="354.0" text-anchor="end" font-family="Arial" font-size="12">33000</text>
<circle cx="80.0" cy="350.0" r="4" fill="#005bbb"/>
<text x="80.0" y="342.0" text-anchor="middle" font-family="Arial" font-size="11">33000</text>
<circle cx="713.8" cy="155.8" r="4" fill="#005bbb"/>
<text x="713.8" y="147.8" text-anchor="middle" font-family="Arial" font-size="11">13000</text>
<circle cx="716.8" cy="30.0" r="4" fill="#005bbb"/>
<text x="716.8" y="22.0" text-anchor="middle" font-family="Arial" font-size="11">46</text>
<circle cx="719.8" cy="30.0" r="4" fill="#005bbb"/>
<text x="719.8" y="22.0" text-anchor="middle" font-family="Arial" font-size="11">46</text>
<circle cx="722.8" cy="30.0" r="4" fill="#005bbb"/>
<text x="722.8" y="22.0" text-anchor="middle" font-family="Arial" font-size="11">46</text>
<circle cx="725.8" cy="30.0" r="4" fill="#005bbb"/>
<text x="725.8" y="22.0" text-anchor="middle" font-family="Arial" font-size="11">46</text>
<circle cx="728.8" cy="30.0" r="4" fill="#005bbb"/>
<text x="728.8" y="22.0" text-anchor="middle" font-family="Arial" font-size="11">46</text>
<circle cx="731.8" cy="30.0" r="4" fill="#005bbb"/>
<text x="731.8" y="22.0" text-anchor="middle" font-family="Arial" font-size="11">46</text>
<circle cx="734.8" cy="30.0" r="4" fill="#005bbb"/>
<text x="734.8" y="22.0" text-anchor="middle" font-family="Arial" font-size="11">46</text>
<circle cx="737.8" cy="30.0" r="4" fill="#005bbb"/>
<text x="737.8" y="22.0" text-anchor="middle" font-family="Arial" font-size="11">46</text>
<circle cx="740.8" cy="30.0" r="4" fill="#005bbb"/>
<text x="740.8" y="22.0" text-anchor="middle" font-family="Arial" font-size="11">46</text>
<circle cx="743.8" cy="30.0" r="4" fill="#005bbb"/>
<text x="743.8" y="22.0" text-anchor="middle" font-family="Arial" font-size="11">46</text>
<circle cx="746.8" cy="30.0" r="4" fill="#005bbb"/>
<text x="746.8" y="22.0" text-anchor="middle" font-family="Arial" font-size="11">46</text>
<circle cx="749.8" cy="30.0" r="4" fill="#005bbb"/>
<text x="749.8" y="22.0" text-anchor="middle" font-family="Arial" font-size="11">46</text>
<circle cx="752.9" cy="30.0" r="4" fill="#005bbb"/>
<text x="752.9" y="22.0" text-anchor="middle" font-family="Arial" font-size="11">46</text>
<circle cx="755.9" cy="30.0" r="4" fill="#005bbb"/>
<text x="755.9" y="22.0" text-anchor="middle" font-family="Arial" font-size="11">46</text>
<circle cx="758.9" cy="30.0" r="4" fill="#005bbb"/>
<text x="758.9" y="22.0" text-anchor="middle" font-family="Arial" font-size="11">46</text>
<circle cx="761.9" cy="30.0" r="4" fill="#005bbb"/>
<text x="761.9" y="22.0" text-anchor="middle" font-family="Arial" font-size="11">46</text>
<circle cx="764.9" cy="30.0" r="4" fill="#005bbb"/>
<text x="764.9" y="22.0" text-anchor="middle" font-family="Arial" font-size="11">46</text>
<circle cx="767.9" cy="30.0" r="4" fill="#005bbb"/>
<text x="767.9" y="22.0" text-anchor="middle" font-family="Arial" font-size="11">46</text>
<circle cx="770.9" cy="30.0" r="4" fill="#005bbb"/>
<text x="770.9" y="22.0" text-anchor="middle" font-family="Arial" font-size="11">46</text>
<circle cx="773.9" cy="30.0" r="4" fill="#005bbb"/>
<text x="773.9" y="22.0" text-anchor="middle" font-family="Arial" font-size="11">46</text>
<circle cx="776.9" cy="30.0" r="4" fill="#005bbb"/>
<text x="776.9" y="22.0" text-anchor="middle" font-family="Arial" font-size="11">46</text>
<circle cx="779.9" cy="30.0" r="4" fill="#005bbb"/>
<text x="779.9" y="22.0" text-anchor="middle" font-family="Arial" font-size="11">46</text>
<circle cx="782.9" cy="30.0" r="4" fill="#005bbb"/>
<text x="782.9" y="22.0" text-anchor="middle" font-family="Arial" font-size="11">46</text>
<circle cx="785.9" cy="30.0" r="4" fill="#005bbb"/>
<text x="785.9" y="22.0" text-anchor="middle" font-family="Arial" font-size="11">46</text>
<circle cx="788.9" cy="30.0" r="4" fill="#005bbb"/>
<text x="788.9" y="22.0" text-anchor="middle" font-family="Arial" font-size="11">46</text>
<circle cx="791.9" cy="30.0" r="4" fill="#005bbb"/>
<text x="791.9" y="22.0" text-anchor="middle" font-family="Arial" font-size="11">46</text>
<circle cx="794.9" cy="30.0" r="4" fill="#005bbb"/>
<text x="794.9" y="22.0" text-anchor="middle" font-family="Arial" font-size="11">46</text>
<circle cx="797.9" cy="30.0" r="4" fill="#005bbb"/>
<text x="797.9" y="22.0" text-anchor="middle" font-family="Arial" font-size="11">46</text>
<circle cx="800.9" cy="30.0" r="4" fill="#005bbb"/>
<text x="800.9" y="22.0" text-anchor="middle" font-family="Arial" font-size="11">46</text>
<circle cx="803.9" cy="30.0" r="4" fill="#005bbb"/>
<text x="803.9" y="22.0" text-anchor="middle" font-family="Arial" font-size="11">46</text>
<circle cx="806.9" cy="30.0" r="4" fill="#005bbb"/>
<text x="806.9" y="22.0" text-anchor="middle" font-family="Arial" font-size="11">46</text>
<circle cx="809.9" cy="30.0" r="4" fill="#005bbb"/>
<text x="809.9" y="22.0" text-anchor="middle" font-family="Arial" font-size="11">46</text>
<circle cx="812.9" cy="30.0" r="4" fill="#005bbb"/>
<text x="812.9" y="22.0" text-anchor="middle" font-family="Arial" font-size="11">46</text>
<circle cx="815.9" cy="30.0" r="4" fill="#005bbb"/>
<text x="815.9" y="22.0" text-anchor="middle" font-family="Arial" font-size="11">46</text>
<circle cx="818.9" cy="30.0" r="4" fill="#005bbb"/>
<text x="818.9" y="22.0" text-anchor="middle" font-family="Arial" font-size="11">46</text>
<circle cx="821.9" cy="30.0" r="4" fill="#005bbb"/>
<text x="821.9" y="22.0" text-anchor="middle" font-family="Arial" font-size="11">46</text>
<circle cx="824.9" cy="30.0" r="4" fill="#005bbb"/>
<text x="824.9" y="22.0" text-anchor="middle" font-family="Arial" font-size="11">46</text>
<circle cx="827.9" cy="30.0" r="4" fill="#005bbb"/>
<text x="827.9" y="22.0" text-anchor="middle" font-family="Arial" font-size="11">46</text>
<circle cx="831.0" cy="30.0" r="4" fill="#005bbb"/>
<text x="831.0" y="22.0" text-anchor="middle" font-family="Arial" font-size="11">46</text>
<circle cx="834.0" cy="30.0" r="4" fill="#005bbb"/>
<text x="834.0" y="22.0" text-anchor="middle" font-family="Arial" font-size="11">46</text>
<circle cx="837.0" cy="30.0" r="4" fill="#005bbb"/>
<text x="837.0" y="22.0" text-anchor="middle" font-family="Arial" font-size="11">46</text>
<circle cx="840.0" cy="30.0" r="4" fill="#005bbb"/>
<text x="840.0" y="22.0" text-anchor="middle" font-family="Arial" font-size="11">46</text>
<circle cx="843.0" cy="30.0" r="4" fill="#005bbb"/>
<text x="843.0" y="22.0" text-anchor="middle" font-family="Arial" font-size="11">46</text>
<circle cx="846.0" cy="30.0" r="4" fill="#005bbb"/>
<text x="846.0" y="22.0" text-anchor="middle" font-family="Arial" font-size="11">46</text>
<circle cx="849.0" cy="30.0" r="4" fill="#005bbb"/>
<text x="849.0" y="22.0" text-anchor="middle" font-family="Arial" font-size="11">46</text>
<circle cx="852.0" cy="30.0" r="4" fill="#005bbb"/>
<text x="852.0" y="22.0" text-anchor="middle" font-family="Arial" font-size="11">46</text>
<circle cx="855.0" cy="30.0" r="4" fill="#005bbb"/>
<text x="855.0" y="22.0" text-anchor="middle" font-family="Arial" font-size="11">46</text>
<circle cx="858.0" cy="30.0" r="4" fill="#005bbb"/>
<text x="858.0" y="22.0" text-anchor="middle" font-family="Arial" font-size="11">46</text>
<circle cx="861.0" cy="30.0" r="4" fill="#005bbb"/>
<text x="861.0" y="22.0" text-anchor="middle" font-family="Arial" font-size="11">46</text>
<circle cx="864.0" cy="30.0" r="4" fill="#005bbb"/>
<text x="864.0" y="22.0" text-anchor="middle" font-family="Arial" font-size="11">46</text>
<circle cx="867.0" cy="30.0" r="4" fill="#005bbb"/>
<text x="867.0" y="22.0" text-anchor="middle" font-family="Arial" font-size="11">46</text>
<circle cx="870.0" cy="30.0" r="4" fill="#005bbb"/>
<text x="870.0" y="22.0" text-anchor="middle" font-family="Arial" font-size="11">46</text>
<polyline points="80.0,350.0 713.8,155.8 716.8,30.0 719.8,30.0 722.8,30.0 725.8,30.0 728.8,30.0 731.8,30.0 734.8,30.0 737.8,30.0 740.8,30.0 743.8,30.0 746.8,30.0 749.8,30.0 752.9,30.0 755.9,30.0 758.9,30.0 761.9,30.0 764.9,30.0 767.9,30.0 770.9,30.0 773.9,30.0 776.9,30.0 779.9,30.0 782.9,30.0 785.9,30.0 788.9,30.0 791.9,30.0 794.9,30.0 797.9,30.0 800.9,30.0 803.9,30.0 806.9,30.0 809.9,30.0 812.9,30.0 815.9,30.0 818.9,30.0 821.9,30.0 824.9,30.0 827.9,30.0 831.0,30.0 834.0,30.0 837.0,30.0 840.0,30.0 843.0,30.0 846.0,30.0 849.0,30.0 852.0,30.0 855.0,30.0 858.0,30.0 861.0,30.0 864.0,30.0 867.0,30.0 870.0,30.0" fill="none" stroke="#005bbb" stroke-width="2"/>
<text x="80" y="400" font-family="Arial" font-size="12">2026-01-04</text>
<text x="870" y="400" text-anchor="end" font-family="Arial" font-size="12">2026-09-24</text>
</svg>