<svg xmlns="http://www.w3.org/2000/svg" width="900" height="420">
<rect width="100%" height="100%" fill="#ffffff"/>
<text x="450" y="20" text-anchor="middle" font-family="Arial" font-size="18">Valencia Marathon Waitlist Position</text>
<line x1="80" y1="30" x2="80" y2="350" stroke="#666"/>
<line x1="80" y1="350" x2="870" y2="350" stroke="#666"/>
<line x1="80" y1="30.0" x2="870" y2="30.0" stroke="#eee"/>
<text x="70" y="34.0" text-anchor="end" font-family="Arial" font-size="12">46</text>
<line x1="80" y1="110.0" x2="870" y2="110.0" stroke="#eee"/>
<text x="70" y="114.0" text-anchor="end" font-family="Arial" font-size="12">8284</text>
<line x1="80" y1="190.0" x2="870" y2="190.0" stroke="#eee"/>
<text x="70" y="194.0" text-anchor="end" font-family="Arial" font-size="12">16523</text>
<line x1="80" y1="270.0" x2="870" y2="270.0" stroke="#eee"/>
<text x="70" y="274.0" text-anchor="end" font-family="Arial" font-size="12">24762</text>
<line x1="80" y1="350.0" x2="870" y2="350.0" stroke="#eee"/>
<text x="70" y="354.0" text-anchor="end" font-family="Arial" font-size="12">33000</text>
<circle cx="80.0" cy="350.0" r="4" fill="#005bbb"/>
<text x="80.0" y="342.0" text-anchor="middle" font-family="Arial" font-size="11">33000</text>
<circle cx="731.1" cy="155.8" r="4" fill="#005bbb"/>
<text x="731.1" y="147.8" text-anchor="middle" font-family="Arial" font-size="11">13000</text>
<circle cx="734.2" cy="30.0" r="4" fill="#005bbb"/>
<text x="734.2" y="22.0" text-anchor="middle" font-family="Arial" font-size="11">46</text>
<circle cx="737.3" cy="30.0" r="4" fill="#005bbb"/>
<text x="737.3" y="22.0" text-anchor="middle" font-family="Arial" font-size="11">46</text>
<circle cx="740.4" cy="30.0" r="4" fill="#005bbb"/>
<text x="740.4" y="22.0" text-anchor="middle" font-family="Arial" font-size="11">46</text>
<circle cx="743.5" cy="30.0" r="4" fill="#005bbb"/>
<text x="743.5" y="22.0" text-anchor="middle" font-family="Arial" font-size="11">46</text>
<circle cx="746.6" cy="30.0" r="4" fill="#005bbb"/>
<text x="746.6" y="22.0" text-anchor="middle" font-family="Arial" font-size="11">46</text>
<circle cx="749.6" cy="30.0" r="4" fill="#005bbb"/>
<text x="749.6" y="22.0" text-anchor="middle" font-family="Arial" font-size="11">46</text>
<circle cx="752.7" cy="30.0" r="4" fill="#005bbb"/>
<text x="752.7" y="22.0" text-anchor="middle" font-family="Arial" font-size="11">46</text>
<circle cx="755.8" cy="30.0" r="4" fill="#005bbb"/>
<text x="755.8" y="22.0" text-anchor="middle" font-family="Arial" font-size="11">46</text>
<circle cx="758.9" cy="30.0" r="4" fill="#005bbb"/>
<text x="758.9" y="22.0" text-anchor="middle" font-family="Arial" font-size="11">46</text>
<circle cx="762.0" cy="30.0" r="4" fill="#005bbb"/>
<text x="762.0" y="22.0" text-anchor="middle" font-family="Arial" font-size="11">46</text>
<circle cx="765.1" cy="30.0" r="4" fill="#005bbb"/>
<text x="765.1" y="22.0" text-anchor="middle" font-family="Arial" font-size="11">46</text>
<circle cx="768.2" cy="30.0" r="4" fill="#005bbb"/>
<text x="768.2" y="22.0" text-anchor="middle" font-family="Arial" font-size="11">46</text>
<circle cx="771.2" cy="30.0" r="4" fill="#005bbb"/>
<text x="771.2" y="22.0" text-anchor="middle" font-family="Arial" font-size="11">46</text>
<circle cx="774.3" cy="30.0" r="4" fill="#005bbb"/>
<text x="774.3" y="22.0" text-anchor="middle" font-family="Arial" font-size="11">46</text>
<circle cx="777.4" cy="30.0" r="4" fill="#005bbb"/>
<text x="777.4" y="22.0" text-anchor="middle" font-family="Arial" font-size="11">46</text>
<circle cx="780.5" cy="30.0" r="4" fill="#005bbb"/>
<text x="780.5" y="22.0" text-anchor="middle" font-family="Arial" font-size="11">46</text>
<circle cx="783.6" cy="30.0" r="4" fill="#005bbb"/>
<text x="783.6" y="22.0" text-anchor="middle" font-family="Arial" font-size="11">46</text>
<circle cx="786.7" cy="30.0" r="4" fill="#005bbb"/>
<text x="786.7" y="22.0" text-anchor="middle" font-family="Arial" font-size="11">46</text>
<circle cx="789.8" cy="30.0" r="4" fill="#005bbb"/>
<text x="789.8" y="22.0" text-anchor="middle" font-family="Arial" font-size="11">46</text>
<circle cx="792.9" cy="30.0" r="4" fill="#005bbb"/>
<text x="792.9" y="22.0" text-anchor="middle" font-family="Arial" font-size="11">46</text>
<circle cx="795.9" cy="30.0" r="4" fill="#005bbb"/>
<text x="795.9" y="22.0" text-anchor="middle" font-family="Arial" font-size="11">46</text>
<circle cx="799.0" cy="30.0" r="4" fill="#005bbb"/>
<text x="799.0" y="22.0" text-anchor="middle" font-family="Arial" font-size="11">46</text>
<circle cx="802.1" cy="30.0" r="4" fill="#005bbb"/>
<text x="802.1" y="22.0" text-anchor="middle" font-family="Arial" font-size="11">46</text>
<circle cx="805.2" cy="30.0" r="4" fill="#005bbb"/>
<text x="805.2" y="22.0" text-anchor="middle" font-family="Arial" font-size="11">46</text>
<circle cx="808.3" cy="30.0" r="4" fill="#005bbb"/>
<text x="808.3" y="22.0" text-anchor="middle" font-family="Arial" font-size="11">46</text>
<circle cx="811.4" cy="30.0" r="4" fill="#005bbb"/>
<text x="811.4" y="22.0" text-anchor="middle" font-family="Arial" font-size="11">46</text>
<circle cx="814.5" cy="30.0" r="4" fill="#005bbb"/>
<text x="814.5" y="22.0" text-anchor="middle" font-family="Arial" font-size="11">46</text>
<circle cx="817.5" cy="30.0" r="4" fill="#005bbb"/>
<text x="817.5" y="22.0" text-anchor="middle" font-family="Arial" font-size="11">46</text>
<circle cx="820.6" cy="30.0" r="4" fill="#005bbb"/>
<text x="820.6" y="22.0" text-anchor="middle" font-family="Arial" font-size="11">46</text>
<circle cx="823.7" cy="30.0" r="4" fill="#005bbb"/>
<text x="823.7" y="22.0" text-anchor="middle" font-family="Arial" font-size="11">46</text>
<circle cx="826.8" cy="30.0" r="4" fill="#005bbb"/>
<text x="826.8" y="22.0" text-anchor="middle" font-family="Arial" font-size="11">46</text>
<circle cx="829.9" cy="30.0" r="4" fill="#005bbb"/>
<text x="829.9" y="22.0" text-anchor="middle" font-family="Arial" font-size="11">46</text>
<circle cx="833.0" cy="30.0" r="4" fill="#005bbb"/>
<text x="833.0" y="22.0" text-anchor="middle" font-family="Arial" font-size="11">46</text>
<circle cx="836.1" cy="30.0" r="4" fill="#005bbb"/>
<text x="836.1" y="22.0" text-anchor="middle" font-family="Arial" font-size="11">46</text>
<circle cx="839.1" cy="30.0" r="4" fill="#005bbb"/>
<text x="839.1" y="22.0" text-anchor="middle" font-family="Arial" font-size="11">46</text>
<circle cx="842.2" cy="30.0" r="4" fill="#005bbb"/>
<text x="842.2" y="22.0" text-anchor="middle" font-family="Arial" font-size="11">46</text>
<circle cx="845.3" cy="30.0" r="4" fill="#005bbb"/>
<text x="845.3" y="22.0" text-anchor="middle" font-family="Arial" font-size="11">46</text>
<circle cx="848.4" cy="30.0" r="4" fill="#005bbb"/>
<text x="848.4" y="22.0" text-anchor="middle" font-family="Arial" font-size="11">46</text>
<circle cx="851.5" cy="30.0" r="4" fill="#005bbb"/>
<text x="851.5" y="22.0" text-anchor="middle" font-family="Arial" font-size="11">46</text>
<circle cx="854.6" cy="30.0" r="4" fill="#005bbb"/>
<text x="854.6" y="22.0" text-anchor="middle" font-family="Arial" font-size="11">46</text>
<circle cx="857.7" cy="30.0" r="4" fill="#005bbb"/>
<text x="857.7" y="22.0" text-anchor="middle" font-family="Arial" font-size="11">46</text>
<circle cx="860.7" cy="30.0" r="4" fill="#005bbb"/>
<text x="860.7" y="22.0" text-anchor="middle" font-family="Arial" font-size="11">46</text>
<circle cx="863.8" cy="30.0" r="4" fill="#005bbb"/>
<text x="863.8" y="22.0" text-anchor="middle" font-family="Arial" font-size="11">46</text>
<circle cx="866.9" cy="30.0" r="4" fill="#005bbb"/>
<text x="866.9" y="22.0" text-anchor="middle" font-family="Arial" font-size="11">46</text>
<circle cx="870.0" cy="30.0" r="4" fill="#005bbb"/>
<text x="870.0" y="22.0" text-anchor="middle" font-family="Arial" font-size="11">46</text>
<polyline points="80.0,350.0 731.1,155.8 734.2,30.0 737.3,30.0 740.4,30.0 743.5,30.0 746.6,30.0 749.6,30.0 752.7,30.0 755.8,30.0 758.9,30.0 762.0,30.0 765.1,30.0 768.2,30.0 771.2,30.0 774.3,30.0 777.4,30.0 780.5,30.0 783.6,30.0 786.7,30.0 789.8,30.0 792.9,30.0 795.9,30.0 799.0,30.0 802.1,30.0 805.2,30.0 808.3,30.0 811.4,30.0 814.5,30.0 817.5,30.0 820.6,30.0 823.7,30.0 826.8,30.0 829.9,30.0 833.0,30.0 836.1,30.0 839.1,30.0 842.2,30.0 845.3,30.0 848.4,30.0 851.5,30.0 854.6,30.0 857.7,30.0 860.7,30.0 863.8,30.0 866.9,30.0 870.0,30.0" fill="none" stroke="#005bbb" stroke-width="2"/>
<text x="80" y="400" font-family="Arial" font-size="12">2026-01-04</text>
<text x="870" y="400" text-anchor="end" font-family="Arial" font-size="12">2026-09-17</text>
</svg>