<svg xmlns="http://www.w3.org/2000/svg" width="900" height="420">
<rect width="100%" height="100%" fill="#ffffff"/>
<text x="450" y="20" text-anchor="middle" font-family="Arial" font-size="18">Valencia Marathon Waitlist Position</text>
<line x1="80" y1="30" x2="80" y2="350" stroke="#666"/>
<line x1="80" y1="350" x2="870" y2="350" stroke="#666"/>
<line x1="80" y1="30.0" x2="870" y2="30.0" stroke="#eee"/>
<text x="70" y="34.0" text-anchor="end" font-family="Arial" font-size="12">46</text>
<line x1="80" y1="110.0" x2="870" y2="110.0" stroke="#eee"/>
<text x="70" y="114.0" text-anchor="end" font-family="Arial" font-size="12">8284</text>
<line x1="80" y1="190.0" x2="870" y2="190.0" stroke="#eee"/>
<text x="70" y="194.0" text-anchor="end" font-family="Arial" font-size="12">16523</text>
<line x1="80" y1="270.0" x2="870" y2="270.0" stroke="#eee"/>
<text x="70" y="274.0" text-anchor="end" font-family="Arial" font-size="12">24762</text>
<line x1="80" y1="350.0" x2="870" y2="350.0" stroke="#eee"/>
<text x="70" y="354.0" text-anchor="end" font-family="Arial" font-size="12">33000</text>
<circle cx="80.0" cy="350.0" r="4" fill="#005bbb"/>
<text x="80.0" y="342.0" text-anchor="middle" font-family="Arial" font-size="11">33000</text>
<circle cx="716.2" cy="155.8" r="4" fill="#005bbb"/>
<text x="716.2" y="147.8" text-anchor="middle" font-family="Arial" font-size="11">13000</text>
<circle cx="719.2" cy="30.0" r="4" fill="#005bbb"/>
<text x="719.2" y="22.0" text-anchor="middle" font-family="Arial" font-size="11">46</text>
<circle cx="722.3" cy="30.0" r="4" fill="#005bbb"/>
<text x="722.3" y="22.0" text-anchor="middle" font-family="Arial" font-size="11">46</text>
<circle cx="725.3" cy="30.0" r="4" fill="#005bbb"/>
<text x="725.3" y="22.0" text-anchor="middle" font-family="Arial" font-size="11">46</text>
<circle cx="728.3" cy="30.0" r="4" fill="#005bbb"/>
<text x="728.3" y="22.0" text-anchor="middle" font-family="Arial" font-size="11">46</text>
<circle cx="731.3" cy="30.0" r="4" fill="#005bbb"/>
<text x="731.3" y="22.0" text-anchor="middle" font-family="Arial" font-size="11">46</text>
<circle cx="734.3" cy="30.0" r="4" fill="#005bbb"/>
<text x="734.3" y="22.0" text-anchor="middle" font-family="Arial" font-size="11">46</text>
<circle cx="737.3" cy="30.0" r="4" fill="#005bbb"/>
<text x="737.3" y="22.0" text-anchor="middle" font-family="Arial" font-size="11">46</text>
<circle cx="740.3" cy="30.0" r="4" fill="#005bbb"/>
<text x="740.3" y="22.0" text-anchor="middle" font-family="Arial" font-size="11">46</text>
<circle cx="743.4" cy="30.0" r="4" fill="#005bbb"/>
<text x="743.4" y="22.0" text-anchor="middle" font-family="Arial" font-size="11">46</text>
<circle cx="746.4" cy="30.0" r="4" fill="#005bbb"/>
<text x="746.4" y="22.0" text-anchor="middle" font-family="Arial" font-size="11">46</text>
<circle cx="749.4" cy="30.0" r="4" fill="#005bbb"/>
<text x="749.4" y="22.0" text-anchor="middle" font-family="Arial" font-size="11">46</text>
<circle cx="752.4" cy="30.0" r="4" fill="#005bbb"/>
<text x="752.4" y="22.0" text-anchor="middle" font-family="Arial" font-size="11">46</text>
<circle cx="755.4" cy="30.0" r="4" fill="#005bbb"/>
<text x="755.4" y="22.0" text-anchor="middle" font-family="Arial" font-size="11">46</text>
<circle cx="758.4" cy="30.0" r="4" fill="#005bbb"/>
<text x="758.4" y="22.0" text-anchor="middle" font-family="Arial" font-size="11">46</text>
<circle cx="761.5" cy="30.0" r="4" fill="#005bbb"/>
<text x="761.5" y="22.0" text-anchor="middle" font-family="Arial" font-size="11">46</text>
<circle cx="764.5" cy="30.0" r="4" fill="#005bbb"/>
<text x="764.5" y="22.0" text-anchor="middle" font-family="Arial" font-size="11">46</text>
<circle cx="767.5" cy="30.0" r="4" fill="#005bbb"/>
<text x="767.5" y="22.0" text-anchor="middle" font-family="Arial" font-size="11">46</text>
<circle cx="770.5" cy="30.0" r="4" fill="#005bbb"/>
<text x="770.5" y="22.0" text-anchor="middle" font-family="Arial" font-size="11">46</text>
<circle cx="773.5" cy="30.0" r="4" fill="#005bbb"/>
<text x="773.5" y="22.0" text-anchor="middle" font-family="Arial" font-size="11">46</text>
<circle cx="776.5" cy="30.0" r="4" fill="#005bbb"/>
<text x="776.5" y="22.0" text-anchor="middle" font-family="Arial" font-size="11">46</text>
<circle cx="779.5" cy="30.0" r="4" fill="#005bbb"/>
<text x="779.5" y="22.0" text-anchor="middle" font-family="Arial" font-size="11">46</text>
<circle cx="782.6" cy="30.0" r="4" fill="#005bbb"/>
<text x="782.6" y="22.0" text-anchor="middle" font-family="Arial" font-size="11">46</text>
<circle cx="785.6" cy="30.0" r="4" fill="#005bbb"/>
<text x="785.6" y="22.0" text-anchor="middle" font-family="Arial" font-size="11">46</text>
<circle cx="788.6" cy="30.0" r="4" fill="#005bbb"/>
<text x="788.6" y="22.0" text-anchor="middle" font-family="Arial" font-size="11">46</text>
<circle cx="791.6" cy="30.0" r="4" fill="#005bbb"/>
<text x="791.6" y="22.0" text-anchor="middle" font-family="Arial" font-size="11">46</text>
<circle cx="794.6" cy="30.0" r="4" fill="#005bbb"/>
<text x="794.6" y="22.0" text-anchor="middle" font-family="Arial" font-size="11">46</text>
<circle cx="797.6" cy="30.0" r="4" fill="#005bbb"/>
<text x="797.6" y="22.0" text-anchor="middle" font-family="Arial" font-size="11">46</text>
<circle cx="800.6" cy="30.0" r="4" fill="#005bbb"/>
<text x="800.6" y="22.0" text-anchor="middle" font-family="Arial" font-size="11">46</text>
<circle cx="803.7" cy="30.0" r="4" fill="#005bbb"/>
<text x="803.7" y="22.0" text-anchor="middle" font-family="Arial" font-size="11">46</text>
<circle cx="806.7" cy="30.0" r="4" fill="#005bbb"/>
<text x="806.7" y="22.0" text-anchor="middle" font-family="Arial" font-size="11">46</text>
<circle cx="809.7" cy="30.0" r="4" fill="#005bbb"/>
<text x="809.7" y="22.0" text-anchor="middle" font-family="Arial" font-size="11">46</text>
<circle cx="812.7" cy="30.0" r="4" fill="#005bbb"/>
<text x="812.7" y="22.0" text-anchor="middle" font-family="Arial" font-size="11">46</text>
<circle cx="815.7" cy="30.0" r="4" fill="#005bbb"/>
<text x="815.7" y="22.0" text-anchor="middle" font-family="Arial" font-size="11">46</text>
<circle cx="818.7" cy="30.0" r="4" fill="#005bbb"/>
<text x="818.7" y="22.0" text-anchor="middle" font-family="Arial" font-size="11">46</text>
<circle cx="821.8" cy="30.0" r="4" fill="#005bbb"/>
<text x="821.8" y="22.0" text-anchor="middle" font-family="Arial" font-size="11">46</text>
<circle cx="824.8" cy="30.0" r="4" fill="#005bbb"/>
<text x="824.8" y="22.0" text-anchor="middle" font-family="Arial" font-size="11">46</text>
<circle cx="827.8" cy="30.0" r="4" fill="#005bbb"/>
<text x="827.8" y="22.0" text-anchor="middle" font-family="Arial" font-size="11">46</text>
<circle cx="830.8" cy="30.0" r="4" fill="#005bbb"/>
<text x="830.8" y="22.0" text-anchor="middle" font-family="Arial" font-size="11">46</text>
<circle cx="833.8" cy="30.0" r="4" fill="#005bbb"/>
<text x="833.8" y="22.0" text-anchor="middle" font-family="Arial" font-size="11">46</text>
<circle cx="836.8" cy="30.0" r="4" fill="#005bbb"/>
<text x="836.8" y="22.0" text-anchor="middle" font-family="Arial" font-size="11">46</text>
<circle cx="839.8" cy="30.0" r="4" fill="#005bbb"/>
<text x="839.8" y="22.0" text-anchor="middle" font-family="Arial" font-size="11">46</text>
<circle cx="842.9" cy="30.0" r="4" fill="#005bbb"/>
<text x="842.9" y="22.0" text-anchor="middle" font-family="Arial" font-size="11">46</text>
<circle cx="845.9" cy="30.0" r="4" fill="#005bbb"/>
<text x="845.9" y="22.0" text-anchor="middle" font-family="Arial" font-size="11">46</text>
<circle cx="848.9" cy="30.0" r="4" fill="#005bbb"/>
<text x="848.9" y="22.0" text-anchor="middle" font-family="Arial" font-size="11">46</text>
<circle cx="851.9" cy="30.0" r="4" fill="#005bbb"/>
<text x="851.9" y="22.0" text-anchor="middle" font-family="Arial" font-size="11">46</text>
<circle cx="854.9" cy="30.0" r="4" fill="#005bbb"/>
<text x="854.9" y="22.0" text-anchor="middle" font-family="Arial" font-size="11">46</text>
<circle cx="857.9" cy="30.0" r="4" fill="#005bbb"/>
<text x="857.9" y="22.0" text-anchor="middle" font-family="Arial" font-size="11">46</text>
<circle cx="861.0" cy="30.0" r="4" fill="#005bbb"/>
<text x="861.0" y="22.0" text-anchor="middle" font-family="Arial" font-size="11">46</text>
<circle cx="864.0" cy="30.0" r="4" fill="#005bbb"/>
<text x="864.0" y="22.0" text-anchor="middle" font-family="Arial" font-size="11">46</text>
<circle cx="867.0" cy="30.0" r="4" fill="#005bbb"/>
<text x="867.0" y="22.0" text-anchor="middle" font-family="Arial" font-size="11">46</text>
<circle cx="870.0" cy="30.0" r="4" fill="#005bbb"/>
<text x="870.0" y="22.0" text-anchor="middle" font-family="Arial" font-size="11">46</text>
<polyline points="80.0,350.0 716.2,155.8 719.2,30.0 722.3,30.0 725.3,30.0 728.3,30.0 731.3,30.0 734.3,30.0 737.3,30.0 740.3,30.0 743.4,30.0 746.4,30.0 749.4,30.0 752.4,30.0 755.4,30.0 758.4,30.0 761.5,30.0 764.5,30.0 767.5,30.0 770.5,30.0 773.5,30.0 776.5,30.0 779.5,30.0 782.6,30.0 785.6,30.0 788.6,30.0 791.6,30.0 794.6,30.0 797.6,30.0 800.6,30.0 803.7,30.0 806.7,30.0 809.7,30.0 812.7,30.0 815.7,30.0 818.7,30.0 821.8,30.0 824.8,30.0 827.8,30.0 830.8,30.0 833.8,30.0 836.8,30.0 839.8,30.0 842.9,30.0 845.9,30.0 848.9,30.0 851.9,30.0 854.9,30.0 857.9,30.0 861.0,30.0 864.0,30.0 867.0,30.0 870.0,30.0" fill="none" stroke="#005bbb" stroke-width="2"/>
<text x="80" y="400" font-family="Arial" font-size="12">2026-01-04</text>
<text x="870" y="400" text-anchor="end" font-family="Arial" font-size="12">2026-09-23</text>
</svg>