<svg xmlns="http://www.w3.org/2000/svg" width="900" height="420">
<rect width="100%" height="100%" fill="#ffffff"/>
<text x="450" y="20" text-anchor="middle" font-family="Arial" font-size="18">Valencia Marathon Waitlist Position</text>
<line x1="80" y1="30" x2="80" y2="350" stroke="#666"/>
<line x1="80" y1="350" x2="870" y2="350" stroke="#666"/>
<line x1="80" y1="30.0" x2="870" y2="30.0" stroke="#eee"/>
<text x="70" y="34.0" text-anchor="end" font-family="Arial" font-size="12">46</text>
<line x1="80" y1="110.0" x2="870" y2="110.0" stroke="#eee"/>
<text x="70" y="114.0" text-anchor="end" font-family="Arial" font-size="12">8284</text>
<line x1="80" y1="190.0" x2="870" y2="190.0" stroke="#eee"/>
<text x="70" y="194.0" text-anchor="end" font-family="Arial" font-size="12">16523</text>
<line x1="80" y1="270.0" x2="870" y2="270.0" stroke="#eee"/>
<text x="70" y="274.0" text-anchor="end" font-family="Arial" font-size="12">24762</text>
<line x1="80" y1="350.0" x2="870" y2="350.0" stroke="#eee"/>
<text x="70" y="354.0" text-anchor="end" font-family="Arial" font-size="12">33000</text>
<circle cx="80.0" cy="350.0" r="4" fill="#005bbb"/>
<text x="80.0" y="342.0" text-anchor="middle" font-family="Arial" font-size="11">33000</text>
<circle cx="766.0" cy="155.8" r="4" fill="#005bbb"/>
<text x="766.0" y="147.8" text-anchor="middle" font-family="Arial" font-size="11">13000</text>
<circle cx="769.2" cy="30.0" r="4" fill="#005bbb"/>
<text x="769.2" y="22.0" text-anchor="middle" font-family="Arial" font-size="11">46</text>
<circle cx="772.5" cy="30.0" r="4" fill="#005bbb"/>
<text x="772.5" y="22.0" text-anchor="middle" font-family="Arial" font-size="11">46</text>
<circle cx="775.7" cy="30.0" r="4" fill="#005bbb"/>
<text x="775.7" y="22.0" text-anchor="middle" font-family="Arial" font-size="11">46</text>
<circle cx="779.0" cy="30.0" r="4" fill="#005bbb"/>
<text x="779.0" y="22.0" text-anchor="middle" font-family="Arial" font-size="11">46</text>
<circle cx="782.2" cy="30.0" r="4" fill="#005bbb"/>
<text x="782.2" y="22.0" text-anchor="middle" font-family="Arial" font-size="11">46</text>
<circle cx="785.5" cy="30.0" r="4" fill="#005bbb"/>
<text x="785.5" y="22.0" text-anchor="middle" font-family="Arial" font-size="11">46</text>
<circle cx="788.7" cy="30.0" r="4" fill="#005bbb"/>
<text x="788.7" y="22.0" text-anchor="middle" font-family="Arial" font-size="11">46</text>
<circle cx="792.0" cy="30.0" r="4" fill="#005bbb"/>
<text x="792.0" y="22.0" text-anchor="middle" font-family="Arial" font-size="11">46</text>
<circle cx="795.2" cy="30.0" r="4" fill="#005bbb"/>
<text x="795.2" y="22.0" text-anchor="middle" font-family="Arial" font-size="11">46</text>
<circle cx="798.5" cy="30.0" r="4" fill="#005bbb"/>
<text x="798.5" y="22.0" text-anchor="middle" font-family="Arial" font-size="11">46</text>
<circle cx="801.7" cy="30.0" r="4" fill="#005bbb"/>
<text x="801.7" y="22.0" text-anchor="middle" font-family="Arial" font-size="11">46</text>
<circle cx="805.0" cy="30.0" r="4" fill="#005bbb"/>
<text x="805.0" y="22.0" text-anchor="middle" font-family="Arial" font-size="11">46</text>
<circle cx="808.2" cy="30.0" r="4" fill="#005bbb"/>
<text x="808.2" y="22.0" text-anchor="middle" font-family="Arial" font-size="11">46</text>
<circle cx="811.5" cy="30.0" r="4" fill="#005bbb"/>
<text x="811.5" y="22.0" text-anchor="middle" font-family="Arial" font-size="11">46</text>
<circle cx="814.7" cy="30.0" r="4" fill="#005bbb"/>
<text x="814.7" y="22.0" text-anchor="middle" font-family="Arial" font-size="11">46</text>
<circle cx="818.0" cy="30.0" r="4" fill="#005bbb"/>
<text x="818.0" y="22.0" text-anchor="middle" font-family="Arial" font-size="11">46</text>
<circle cx="821.2" cy="30.0" r="4" fill="#005bbb"/>
<text x="821.2" y="22.0" text-anchor="middle" font-family="Arial" font-size="11">46</text>
<circle cx="824.5" cy="30.0" r="4" fill="#005bbb"/>
<text x="824.5" y="22.0" text-anchor="middle" font-family="Arial" font-size="11">46</text>
<circle cx="827.7" cy="30.0" r="4" fill="#005bbb"/>
<text x="827.7" y="22.0" text-anchor="middle" font-family="Arial" font-size="11">46</text>
<circle cx="831.0" cy="30.0" r="4" fill="#005bbb"/>
<text x="831.0" y="22.0" text-anchor="middle" font-family="Arial" font-size="11">46</text>
<circle cx="834.2" cy="30.0" r="4" fill="#005bbb"/>
<text x="834.2" y="22.0" text-anchor="middle" font-family="Arial" font-size="11">46</text>
<circle cx="837.5" cy="30.0" r="4" fill="#005bbb"/>
<text x="837.5" y="22.0" text-anchor="middle" font-family="Arial" font-size="11">46</text>
<circle cx="840.7" cy="30.0" r="4" fill="#005bbb"/>
<text x="840.7" y="22.0" text-anchor="middle" font-family="Arial" font-size="11">46</text>
<circle cx="844.0" cy="30.0" r="4" fill="#005bbb"/>
<text x="844.0" y="22.0" text-anchor="middle" font-family="Arial" font-size="11">46</text>
<circle cx="847.2" cy="30.0" r="4" fill="#005bbb"/>
<text x="847.2" y="22.0" text-anchor="middle" font-family="Arial" font-size="11">46</text>
<circle cx="850.5" cy="30.0" r="4" fill="#005bbb"/>
<text x="850.5" y="22.0" text-anchor="middle" font-family="Arial" font-size="11">46</text>
<circle cx="853.7" cy="30.0" r="4" fill="#005bbb"/>
<text x="853.7" y="22.0" text-anchor="middle" font-family="Arial" font-size="11">46</text>
<circle cx="857.0" cy="30.0" r="4" fill="#005bbb"/>
<text x="857.0" y="22.0" text-anchor="middle" font-family="Arial" font-size="11">46</text>
<circle cx="860.2" cy="30.0" r="4" fill="#005bbb"/>
<text x="860.2" y="22.0" text-anchor="middle" font-family="Arial" font-size="11">46</text>
<circle cx="863.5" cy="30.0" r="4" fill="#005bbb"/>
<text x="863.5" y="22.0" text-anchor="middle" font-family="Arial" font-size="11">46</text>
<circle cx="866.7" cy="30.0" r="4" fill="#005bbb"/>
<text x="866.7" y="22.0" text-anchor="middle" font-family="Arial" font-size="11">46</text>
<circle cx="870.0" cy="30.0" r="4" fill="#005bbb"/>
<text x="870.0" y="22.0" text-anchor="middle" font-family="Arial" font-size="11">46</text>
<polyline points="80.0,350.0 766.0,155.8 769.2,30.0 772.5,30.0 775.7,30.0 779.0,30.0 782.2,30.0 785.5,30.0 788.7,30.0 792.0,30.0 795.2,30.0 798.5,30.0 801.7,30.0 805.0,30.0 808.2,30.0 811.5,30.0 814.7,30.0 818.0,30.0 821.2,30.0 824.5,30.0 827.7,30.0 831.0,30.0 834.2,30.0 837.5,30.0 840.7,30.0 844.0,30.0 847.2,30.0 850.5,30.0 853.7,30.0 857.0,30.0 860.2,30.0 863.5,30.0 866.7,30.0 870.0,30.0" fill="none" stroke="#005bbb" stroke-width="2"/>
<text x="80" y="400" font-family="Arial" font-size="12">2026-01-04</text>
<text x="870" y="400" text-anchor="end" font-family="Arial" font-size="12">2026-09-04</text>
</svg>