<svg xmlns="http://www.w3.org/2000/svg" width="900" height="420">
<rect width="100%" height="100%" fill="#ffffff"/>
<text x="450" y="20" text-anchor="middle" font-family="Arial" font-size="18">Valencia Marathon Waitlist Position</text>
<line x1="80" y1="30" x2="80" y2="350" stroke="#666"/>
<line x1="80" y1="350" x2="870" y2="350" stroke="#666"/>
<line x1="80" y1="30.0" x2="870" y2="30.0" stroke="#eee"/>
<text x="70" y="34.0" text-anchor="end" font-family="Arial" font-size="12">46</text>
<line x1="80" y1="110.0" x2="870" y2="110.0" stroke="#eee"/>
<text x="70" y="114.0" text-anchor="end" font-family="Arial" font-size="12">8284</text>
<line x1="80" y1="190.0" x2="870" y2="190.0" stroke="#eee"/>
<text x="70" y="194.0" text-anchor="end" font-family="Arial" font-size="12">16523</text>
<line x1="80" y1="270.0" x2="870" y2="270.0" stroke="#eee"/>
<text x="70" y="274.0" text-anchor="end" font-family="Arial" font-size="12">24762</text>
<line x1="80" y1="350.0" x2="870" y2="350.0" stroke="#eee"/>
<text x="70" y="354.0" text-anchor="end" font-family="Arial" font-size="12">33000</text>
<circle cx="80.0" cy="350.0" r="4" fill="#005bbb"/>
<text x="80.0" y="342.0" text-anchor="middle" font-family="Arial" font-size="11">33000</text>
<circle cx="824.2" cy="155.8" r="4" fill="#005bbb"/>
<text x="824.2" y="147.8" text-anchor="middle" font-family="Arial" font-size="11">13000</text>
<circle cx="827.7" cy="30.0" r="4" fill="#005bbb"/>
<text x="827.7" y="22.0" text-anchor="middle" font-family="Arial" font-size="11">46</text>
<circle cx="831.2" cy="30.0" r="4" fill="#005bbb"/>
<text x="831.2" y="22.0" text-anchor="middle" font-family="Arial" font-size="11">46</text>
<circle cx="834.7" cy="30.0" r="4" fill="#005bbb"/>
<text x="834.7" y="22.0" text-anchor="middle" font-family="Arial" font-size="11">46</text>
<circle cx="838.3" cy="30.0" r="4" fill="#005bbb"/>
<text x="838.3" y="22.0" text-anchor="middle" font-family="Arial" font-size="11">46</text>
<circle cx="841.8" cy="30.0" r="4" fill="#005bbb"/>
<text x="841.8" y="22.0" text-anchor="middle" font-family="Arial" font-size="11">46</text>
<circle cx="845.3" cy="30.0" r="4" fill="#005bbb"/>
<text x="845.3" y="22.0" text-anchor="middle" font-family="Arial" font-size="11">46</text>
<circle cx="848.8" cy="30.0" r="4" fill="#005bbb"/>
<text x="848.8" y="22.0" text-anchor="middle" font-family="Arial" font-size="11">46</text>
<circle cx="852.4" cy="30.0" r="4" fill="#005bbb"/>
<text x="852.4" y="22.0" text-anchor="middle" font-family="Arial" font-size="11">46</text>
<circle cx="855.9" cy="30.0" r="4" fill="#005bbb"/>
<text x="855.9" y="22.0" text-anchor="middle" font-family="Arial" font-size="11">46</text>
<circle cx="859.4" cy="30.0" r="4" fill="#005bbb"/>
<text x="859.4" y="22.0" text-anchor="middle" font-family="Arial" font-size="11">46</text>
<circle cx="862.9" cy="30.0" r="4" fill="#005bbb"/>
<text x="862.9" y="22.0" text-anchor="middle" font-family="Arial" font-size="11">46</text>
<circle cx="866.5" cy="30.0" r="4" fill="#005bbb"/>
<text x="866.5" y="22.0" text-anchor="middle" font-family="Arial" font-size="11">46</text>
<circle cx="870.0" cy="30.0" r="4" fill="#005bbb"/>
<text x="870.0" y="22.0" text-anchor="middle" font-family="Arial" font-size="11">46</text>
<polyline points="80.0,350.0 824.2,155.8 827.7,30.0 831.2,30.0 834.7,30.0 838.3,30.0 841.8,30.0 845.3,30.0 848.8,30.0 852.4,30.0 855.9,30.0 859.4,30.0 862.9,30.0 866.5,30.0 870.0,30.0" fill="none" stroke="#005bbb" stroke-width="2"/>
<text x="80" y="400" font-family="Arial" font-size="12">2026-01-04</text>
<text x="870" y="400" text-anchor="end" font-family="Arial" font-size="12">2026-08-16</text>
</svg>