<svg xmlns="http://www.w3.org/2000/svg" width="900" height="420">
<rect width="100%" height="100%" fill="#ffffff"/>
<text x="450" y="20" text-anchor="middle" font-family="Arial" font-size="18">Valencia Marathon Waitlist Position</text>
<line x1="80" y1="30" x2="80" y2="350" stroke="#666"/>
<line x1="80" y1="350" x2="870" y2="350" stroke="#666"/>
<line x1="80" y1="30.0" x2="870" y2="30.0" stroke="#eee"/>
<text x="70" y="34.0" text-anchor="end" font-family="Arial" font-size="12">46</text>
<line x1="80" y1="110.0" x2="870" y2="110.0" stroke="#eee"/>
<text x="70" y="114.0" text-anchor="end" font-family="Arial" font-size="12">8284</text>
<line x1="80" y1="190.0" x2="870" y2="190.0" stroke="#eee"/>
<text x="70" y="194.0" text-anchor="end" font-family="Arial" font-size="12">16523</text>
<line x1="80" y1="270.0" x2="870" y2="270.0" stroke="#eee"/>
<text x="70" y="274.0" text-anchor="end" font-family="Arial" font-size="12">24762</text>
<line x1="80" y1="350.0" x2="870" y2="350.0" stroke="#eee"/>
<text x="70" y="354.0" text-anchor="end" font-family="Arial" font-size="12">33000</text>
<circle cx="80.0" cy="350.0" r="4" fill="#005bbb"/>
<text x="80.0" y="342.0" text-anchor="middle" font-family="Arial" font-size="11">33000</text>
<circle cx="711.4" cy="155.8" r="4" fill="#005bbb"/>
<text x="711.4" y="147.8" text-anchor="middle" font-family="Arial" font-size="11">13000</text>
<circle cx="714.4" cy="30.0" r="4" fill="#005bbb"/>
<text x="714.4" y="22.0" text-anchor="middle" font-family="Arial" font-size="11">46</text>
<circle cx="717.4" cy="30.0" r="4" fill="#005bbb"/>
<text x="717.4" y="22.0" text-anchor="middle" font-family="Arial" font-size="11">46</text>
<circle cx="720.4" cy="30.0" r="4" fill="#005bbb"/>
<text x="720.4" y="22.0" text-anchor="middle" font-family="Arial" font-size="11">46</text>
<circle cx="723.4" cy="30.0" r="4" fill="#005bbb"/>
<text x="723.4" y="22.0" text-anchor="middle" font-family="Arial" font-size="11">46</text>
<circle cx="726.4" cy="30.0" r="4" fill="#005bbb"/>
<text x="726.4" y="22.0" text-anchor="middle" font-family="Arial" font-size="11">46</text>
<circle cx="729.4" cy="30.0" r="4" fill="#005bbb"/>
<text x="729.4" y="22.0" text-anchor="middle" font-family="Arial" font-size="11">46</text>
<circle cx="732.3" cy="30.0" r="4" fill="#005bbb"/>
<text x="732.3" y="22.0" text-anchor="middle" font-family="Arial" font-size="11">46</text>
<circle cx="735.3" cy="30.0" r="4" fill="#005bbb"/>
<text x="735.3" y="22.0" text-anchor="middle" font-family="Arial" font-size="11">46</text>
<circle cx="738.3" cy="30.0" r="4" fill="#005bbb"/>
<text x="738.3" y="22.0" text-anchor="middle" font-family="Arial" font-size="11">46</text>
<circle cx="741.3" cy="30.0" r="4" fill="#005bbb"/>
<text x="741.3" y="22.0" text-anchor="middle" font-family="Arial" font-size="11">46</text>
<circle cx="744.3" cy="30.0" r="4" fill="#005bbb"/>
<text x="744.3" y="22.0" text-anchor="middle" font-family="Arial" font-size="11">46</text>
<circle cx="747.3" cy="30.0" r="4" fill="#005bbb"/>
<text x="747.3" y="22.0" text-anchor="middle" font-family="Arial" font-size="11">46</text>
<circle cx="750.3" cy="30.0" r="4" fill="#005bbb"/>
<text x="750.3" y="22.0" text-anchor="middle" font-family="Arial" font-size="11">46</text>
<circle cx="753.3" cy="30.0" r="4" fill="#005bbb"/>
<text x="753.3" y="22.0" text-anchor="middle" font-family="Arial" font-size="11">46</text>
<circle cx="756.3" cy="30.0" r="4" fill="#005bbb"/>
<text x="756.3" y="22.0" text-anchor="middle" font-family="Arial" font-size="11">46</text>
<circle cx="759.3" cy="30.0" r="4" fill="#005bbb"/>
<text x="759.3" y="22.0" text-anchor="middle" font-family="Arial" font-size="11">46</text>
<circle cx="762.3" cy="30.0" r="4" fill="#005bbb"/>
<text x="762.3" y="22.0" text-anchor="middle" font-family="Arial" font-size="11">46</text>
<circle cx="765.3" cy="30.0" r="4" fill="#005bbb"/>
<text x="765.3" y="22.0" text-anchor="middle" font-family="Arial" font-size="11">46</text>
<circle cx="768.3" cy="30.0" r="4" fill="#005bbb"/>
<text x="768.3" y="22.0" text-anchor="middle" font-family="Arial" font-size="11">46</text>
<circle cx="771.2" cy="30.0" r="4" fill="#005bbb"/>
<text x="771.2" y="22.0" text-anchor="middle" font-family="Arial" font-size="11">46</text>
<circle cx="774.2" cy="30.0" r="4" fill="#005bbb"/>
<text x="774.2" y="22.0" text-anchor="middle" font-family="Arial" font-size="11">46</text>
<circle cx="777.2" cy="30.0" r="4" fill="#005bbb"/>
<text x="777.2" y="22.0" text-anchor="middle" font-family="Arial" font-size="11">46</text>
<circle cx="780.2" cy="30.0" r="4" fill="#005bbb"/>
<text x="780.2" y="22.0" text-anchor="middle" font-family="Arial" font-size="11">46</text>
<circle cx="783.2" cy="30.0" r="4" fill="#005bbb"/>
<text x="783.2" y="22.0" text-anchor="middle" font-family="Arial" font-size="11">46</text>
<circle cx="786.2" cy="30.0" r="4" fill="#005bbb"/>
<text x="786.2" y="22.0" text-anchor="middle" font-family="Arial" font-size="11">46</text>
<circle cx="789.2" cy="30.0" r="4" fill="#005bbb"/>
<text x="789.2" y="22.0" text-anchor="middle" font-family="Arial" font-size="11">46</text>
<circle cx="792.2" cy="30.0" r="4" fill="#005bbb"/>
<text x="792.2" y="22.0" text-anchor="middle" font-family="Arial" font-size="11">46</text>
<circle cx="795.2" cy="30.0" r="4" fill="#005bbb"/>
<text x="795.2" y="22.0" text-anchor="middle" font-family="Arial" font-size="11">46</text>
<circle cx="798.2" cy="30.0" r="4" fill="#005bbb"/>
<text x="798.2" y="22.0" text-anchor="middle" font-family="Arial" font-size="11">46</text>
<circle cx="801.2" cy="30.0" r="4" fill="#005bbb"/>
<text x="801.2" y="22.0" text-anchor="middle" font-family="Arial" font-size="11">46</text>
<circle cx="804.2" cy="30.0" r="4" fill="#005bbb"/>
<text x="804.2" y="22.0" text-anchor="middle" font-family="Arial" font-size="11">46</text>
<circle cx="807.2" cy="30.0" r="4" fill="#005bbb"/>
<text x="807.2" y="22.0" text-anchor="middle" font-family="Arial" font-size="11">46</text>
<circle cx="810.2" cy="30.0" r="4" fill="#005bbb"/>
<text x="810.2" y="22.0" text-anchor="middle" font-family="Arial" font-size="11">46</text>
<circle cx="813.1" cy="30.0" r="4" fill="#005bbb"/>
<text x="813.1" y="22.0" text-anchor="middle" font-family="Arial" font-size="11">46</text>
<circle cx="816.1" cy="30.0" r="4" fill="#005bbb"/>
<text x="816.1" y="22.0" text-anchor="middle" font-family="Arial" font-size="11">46</text>
<circle cx="819.1" cy="30.0" r="4" fill="#005bbb"/>
<text x="819.1" y="22.0" text-anchor="middle" font-family="Arial" font-size="11">46</text>
<circle cx="822.1" cy="30.0" r="4" fill="#005bbb"/>
<text x="822.1" y="22.0" text-anchor="middle" font-family="Arial" font-size="11">46</text>
<circle cx="825.1" cy="30.0" r="4" fill="#005bbb"/>
<text x="825.1" y="22.0" text-anchor="middle" font-family="Arial" font-size="11">46</text>
<circle cx="828.1" cy="30.0" r="4" fill="#005bbb"/>
<text x="828.1" y="22.0" text-anchor="middle" font-family="Arial" font-size="11">46</text>
<circle cx="831.1" cy="30.0" r="4" fill="#005bbb"/>
<text x="831.1" y="22.0" text-anchor="middle" font-family="Arial" font-size="11">46</text>
<circle cx="834.1" cy="30.0" r="4" fill="#005bbb"/>
<text x="834.1" y="22.0" text-anchor="middle" font-family="Arial" font-size="11">46</text>
<circle cx="837.1" cy="30.0" r="4" fill="#005bbb"/>
<text x="837.1" y="22.0" text-anchor="middle" font-family="Arial" font-size="11">46</text>
<circle cx="840.1" cy="30.0" r="4" fill="#005bbb"/>
<text x="840.1" y="22.0" text-anchor="middle" font-family="Arial" font-size="11">46</text>
<circle cx="843.1" cy="30.0" r="4" fill="#005bbb"/>
<text x="843.1" y="22.0" text-anchor="middle" font-family="Arial" font-size="11">46</text>
<circle cx="846.1" cy="30.0" r="4" fill="#005bbb"/>
<text x="846.1" y="22.0" text-anchor="middle" font-family="Arial" font-size="11">46</text>
<circle cx="849.1" cy="30.0" r="4" fill="#005bbb"/>
<text x="849.1" y="22.0" text-anchor="middle" font-family="Arial" font-size="11">46</text>
<circle cx="852.0" cy="30.0" r="4" fill="#005bbb"/>
<text x="852.0" y="22.0" text-anchor="middle" font-family="Arial" font-size="11">46</text>
<circle cx="855.0" cy="30.0" r="4" fill="#005bbb"/>
<text x="855.0" y="22.0" text-anchor="middle" font-family="Arial" font-size="11">46</text>
<circle cx="858.0" cy="30.0" r="4" fill="#005bbb"/>
<text x="858.0" y="22.0" text-anchor="middle" font-family="Arial" font-size="11">46</text>
<circle cx="861.0" cy="30.0" r="4" fill="#005bbb"/>
<text x="861.0" y="22.0" text-anchor="middle" font-family="Arial" font-size="11">46</text>
<circle cx="864.0" cy="30.0" r="4" fill="#005bbb"/>
<text x="864.0" y="22.0" text-anchor="middle" font-family="Arial" font-size="11">46</text>
<circle cx="867.0" cy="30.0" r="4" fill="#005bbb"/>
<text x="867.0" y="22.0" text-anchor="middle" font-family="Arial" font-size="11">46</text>
<circle cx="870.0" cy="30.0" r="4" fill="#005bbb"/>
<text x="870.0" y="22.0" text-anchor="middle" font-family="Arial" font-size="11">46</text>
<polyline points="80.0,350.0 711.4,155.8 714.4,30.0 717.4,30.0 720.4,30.0 723.4,30.0 726.4,30.0 729.4,30.0 732.3,30.0 735.3,30.0 738.3,30.0 741.3,30.0 744.3,30.0 747.3,30.0 750.3,30.0 753.3,30.0 756.3,30.0 759.3,30.0 762.3,30.0 765.3,30.0 768.3,30.0 771.2,30.0 774.2,30.0 777.2,30.0 780.2,30.0 783.2,30.0 786.2,30.0 789.2,30.0 792.2,30.0 795.2,30.0 798.2,30.0 801.2,30.0 804.2,30.0 807.2,30.0 810.2,30.0 813.1,30.0 816.1,30.0 819.1,30.0 822.1,30.0 825.1,30.0 828.1,30.0 831.1,30.0 834.1,30.0 837.1,30.0 840.1,30.0 843.1,30.0 846.1,30.0 849.1,30.0 852.0,30.0 855.0,30.0 858.0,30.0 861.0,30.0 864.0,30.0 867.0,30.0 870.0,30.0" fill="none" stroke="#005bbb" stroke-width="2"/>
<text x="80" y="400" font-family="Arial" font-size="12">2026-01-04</text>
<text x="870" y="400" text-anchor="end" font-family="Arial" font-size="12">2026-09-25</text>
</svg>