<svg xmlns="http://www.w3.org/2000/svg" width="900" height="420">
<rect width="100%" height="100%" fill="#ffffff"/>
<text x="450" y="20" text-anchor="middle" font-family="Arial" font-size="18">Valencia Marathon Waitlist Position</text>
<line x1="80" y1="30" x2="80" y2="350" stroke="#666"/>
<line x1="80" y1="350" x2="870" y2="350" stroke="#666"/>
<line x1="80" y1="30.0" x2="870" y2="30.0" stroke="#eee"/>
<text x="70" y="34.0" text-anchor="end" font-family="Arial" font-size="12">46</text>
<line x1="80" y1="110.0" x2="870" y2="110.0" stroke="#eee"/>
<text x="70" y="114.0" text-anchor="end" font-family="Arial" font-size="12">8284</text>
<line x1="80" y1="190.0" x2="870" y2="190.0" stroke="#eee"/>
<text x="70" y="194.0" text-anchor="end" font-family="Arial" font-size="12">16523</text>
<line x1="80" y1="270.0" x2="870" y2="270.0" stroke="#eee"/>
<text x="70" y="274.0" text-anchor="end" font-family="Arial" font-size="12">24762</text>
<line x1="80" y1="350.0" x2="870" y2="350.0" stroke="#eee"/>
<text x="70" y="354.0" text-anchor="end" font-family="Arial" font-size="12">33000</text>
<circle cx="80.0" cy="350.0" r="4" fill="#005bbb"/>
<text x="80.0" y="342.0" text-anchor="middle" font-family="Arial" font-size="11">33000</text>
<circle cx="723.6" cy="155.8" r="4" fill="#005bbb"/>
<text x="723.6" y="147.8" text-anchor="middle" font-family="Arial" font-size="11">13000</text>
<circle cx="726.6" cy="30.0" r="4" fill="#005bbb"/>
<text x="726.6" y="22.0" text-anchor="middle" font-family="Arial" font-size="11">46</text>
<circle cx="729.7" cy="30.0" r="4" fill="#005bbb"/>
<text x="729.7" y="22.0" text-anchor="middle" font-family="Arial" font-size="11">46</text>
<circle cx="732.7" cy="30.0" r="4" fill="#005bbb"/>
<text x="732.7" y="22.0" text-anchor="middle" font-family="Arial" font-size="11">46</text>
<circle cx="735.8" cy="30.0" r="4" fill="#005bbb"/>
<text x="735.8" y="22.0" text-anchor="middle" font-family="Arial" font-size="11">46</text>
<circle cx="738.8" cy="30.0" r="4" fill="#005bbb"/>
<text x="738.8" y="22.0" text-anchor="middle" font-family="Arial" font-size="11">46</text>
<circle cx="741.9" cy="30.0" r="4" fill="#005bbb"/>
<text x="741.9" y="22.0" text-anchor="middle" font-family="Arial" font-size="11">46</text>
<circle cx="744.9" cy="30.0" r="4" fill="#005bbb"/>
<text x="744.9" y="22.0" text-anchor="middle" font-family="Arial" font-size="11">46</text>
<circle cx="748.0" cy="30.0" r="4" fill="#005bbb"/>
<text x="748.0" y="22.0" text-anchor="middle" font-family="Arial" font-size="11">46</text>
<circle cx="751.0" cy="30.0" r="4" fill="#005bbb"/>
<text x="751.0" y="22.0" text-anchor="middle" font-family="Arial" font-size="11">46</text>
<circle cx="754.1" cy="30.0" r="4" fill="#005bbb"/>
<text x="754.1" y="22.0" text-anchor="middle" font-family="Arial" font-size="11">46</text>
<circle cx="757.1" cy="30.0" r="4" fill="#005bbb"/>
<text x="757.1" y="22.0" text-anchor="middle" font-family="Arial" font-size="11">46</text>
<circle cx="760.2" cy="30.0" r="4" fill="#005bbb"/>
<text x="760.2" y="22.0" text-anchor="middle" font-family="Arial" font-size="11">46</text>
<circle cx="763.2" cy="30.0" r="4" fill="#005bbb"/>
<text x="763.2" y="22.0" text-anchor="middle" font-family="Arial" font-size="11">46</text>
<circle cx="766.3" cy="30.0" r="4" fill="#005bbb"/>
<text x="766.3" y="22.0" text-anchor="middle" font-family="Arial" font-size="11">46</text>
<circle cx="769.3" cy="30.0" r="4" fill="#005bbb"/>
<text x="769.3" y="22.0" text-anchor="middle" font-family="Arial" font-size="11">46</text>
<circle cx="772.4" cy="30.0" r="4" fill="#005bbb"/>
<text x="772.4" y="22.0" text-anchor="middle" font-family="Arial" font-size="11">46</text>
<circle cx="775.4" cy="30.0" r="4" fill="#005bbb"/>
<text x="775.4" y="22.0" text-anchor="middle" font-family="Arial" font-size="11">46</text>
<circle cx="778.5" cy="30.0" r="4" fill="#005bbb"/>
<text x="778.5" y="22.0" text-anchor="middle" font-family="Arial" font-size="11">46</text>
<circle cx="781.5" cy="30.0" r="4" fill="#005bbb"/>
<text x="781.5" y="22.0" text-anchor="middle" font-family="Arial" font-size="11">46</text>
<circle cx="784.6" cy="30.0" r="4" fill="#005bbb"/>
<text x="784.6" y="22.0" text-anchor="middle" font-family="Arial" font-size="11">46</text>
<circle cx="787.6" cy="30.0" r="4" fill="#005bbb"/>
<text x="787.6" y="22.0" text-anchor="middle" font-family="Arial" font-size="11">46</text>
<circle cx="790.7" cy="30.0" r="4" fill="#005bbb"/>
<text x="790.7" y="22.0" text-anchor="middle" font-family="Arial" font-size="11">46</text>
<circle cx="793.7" cy="30.0" r="4" fill="#005bbb"/>
<text x="793.7" y="22.0" text-anchor="middle" font-family="Arial" font-size="11">46</text>
<circle cx="796.8" cy="30.0" r="4" fill="#005bbb"/>
<text x="796.8" y="22.0" text-anchor="middle" font-family="Arial" font-size="11">46</text>
<circle cx="799.8" cy="30.0" r="4" fill="#005bbb"/>
<text x="799.8" y="22.0" text-anchor="middle" font-family="Arial" font-size="11">46</text>
<circle cx="802.9" cy="30.0" r="4" fill="#005bbb"/>
<text x="802.9" y="22.0" text-anchor="middle" font-family="Arial" font-size="11">46</text>
<circle cx="805.9" cy="30.0" r="4" fill="#005bbb"/>
<text x="805.9" y="22.0" text-anchor="middle" font-family="Arial" font-size="11">46</text>
<circle cx="809.0" cy="30.0" r="4" fill="#005bbb"/>
<text x="809.0" y="22.0" text-anchor="middle" font-family="Arial" font-size="11">46</text>
<circle cx="812.0" cy="30.0" r="4" fill="#005bbb"/>
<text x="812.0" y="22.0" text-anchor="middle" font-family="Arial" font-size="11">46</text>
<circle cx="815.1" cy="30.0" r="4" fill="#005bbb"/>
<text x="815.1" y="22.0" text-anchor="middle" font-family="Arial" font-size="11">46</text>
<circle cx="818.1" cy="30.0" r="4" fill="#005bbb"/>
<text x="818.1" y="22.0" text-anchor="middle" font-family="Arial" font-size="11">46</text>
<circle cx="821.2" cy="30.0" r="4" fill="#005bbb"/>
<text x="821.2" y="22.0" text-anchor="middle" font-family="Arial" font-size="11">46</text>
<circle cx="824.2" cy="30.0" r="4" fill="#005bbb"/>
<text x="824.2" y="22.0" text-anchor="middle" font-family="Arial" font-size="11">46</text>
<circle cx="827.3" cy="30.0" r="4" fill="#005bbb"/>
<text x="827.3" y="22.0" text-anchor="middle" font-family="Arial" font-size="11">46</text>
<circle cx="830.3" cy="30.0" r="4" fill="#005bbb"/>
<text x="830.3" y="22.0" text-anchor="middle" font-family="Arial" font-size="11">46</text>
<circle cx="833.4" cy="30.0" r="4" fill="#005bbb"/>
<text x="833.4" y="22.0" text-anchor="middle" font-family="Arial" font-size="11">46</text>
<circle cx="836.4" cy="30.0" r="4" fill="#005bbb"/>
<text x="836.4" y="22.0" text-anchor="middle" font-family="Arial" font-size="11">46</text>
<circle cx="839.5" cy="30.0" r="4" fill="#005bbb"/>
<text x="839.5" y="22.0" text-anchor="middle" font-family="Arial" font-size="11">46</text>
<circle cx="842.5" cy="30.0" r="4" fill="#005bbb"/>
<text x="842.5" y="22.0" text-anchor="middle" font-family="Arial" font-size="11">46</text>
<circle cx="845.6" cy="30.0" r="4" fill="#005bbb"/>
<text x="845.6" y="22.0" text-anchor="middle" font-family="Arial" font-size="11">46</text>
<circle cx="848.6" cy="30.0" r="4" fill="#005bbb"/>
<text x="848.6" y="22.0" text-anchor="middle" font-family="Arial" font-size="11">46</text>
<circle cx="851.7" cy="30.0" r="4" fill="#005bbb"/>
<text x="851.7" y="22.0" text-anchor="middle" font-family="Arial" font-size="11">46</text>
<circle cx="854.7" cy="30.0" r="4" fill="#005bbb"/>
<text x="854.7" y="22.0" text-anchor="middle" font-family="Arial" font-size="11">46</text>
<circle cx="857.8" cy="30.0" r="4" fill="#005bbb"/>
<text x="857.8" y="22.0" text-anchor="middle" font-family="Arial" font-size="11">46</text>
<circle cx="860.8" cy="30.0" r="4" fill="#005bbb"/>
<text x="860.8" y="22.0" text-anchor="middle" font-family="Arial" font-size="11">46</text>
<circle cx="863.9" cy="30.0" r="4" fill="#005bbb"/>
<text x="863.9" y="22.0" text-anchor="middle" font-family="Arial" font-size="11">46</text>
<circle cx="866.9" cy="30.0" r="4" fill="#005bbb"/>
<text x="866.9" y="22.0" text-anchor="middle" font-family="Arial" font-size="11">46</text>
<circle cx="870.0" cy="30.0" r="4" fill="#005bbb"/>
<text x="870.0" y="22.0" text-anchor="middle" font-family="Arial" font-size="11">46</text>
<polyline points="80.0,350.0 723.6,155.8 726.6,30.0 729.7,30.0 732.7,30.0 735.8,30.0 738.8,30.0 741.9,30.0 744.9,30.0 748.0,30.0 751.0,30.0 754.1,30.0 757.1,30.0 760.2,30.0 763.2,30.0 766.3,30.0 769.3,30.0 772.4,30.0 775.4,30.0 778.5,30.0 781.5,30.0 784.6,30.0 787.6,30.0 790.7,30.0 793.7,30.0 796.8,30.0 799.8,30.0 802.9,30.0 805.9,30.0 809.0,30.0 812.0,30.0 815.1,30.0 818.1,30.0 821.2,30.0 824.2,30.0 827.3,30.0 830.3,30.0 833.4,30.0 836.4,30.0 839.5,30.0 842.5,30.0 845.6,30.0 848.6,30.0 851.7,30.0 854.7,30.0 857.8,30.0 860.8,30.0 863.9,30.0 866.9,30.0 870.0,30.0" fill="none" stroke="#005bbb" stroke-width="2"/>
<text x="80" y="400" font-family="Arial" font-size="12">2026-01-04</text>
<text x="870" y="400" text-anchor="end" font-family="Arial" font-size="12">2026-09-20</text>
</svg>