<svg xmlns="http://www.w3.org/2000/svg" width="900" height="420">
<rect width="100%" height="100%" fill="#ffffff"/>
<text x="450" y="20" text-anchor="middle" font-family="Arial" font-size="18">Valencia Marathon Waitlist Position</text>
<line x1="80" y1="30" x2="80" y2="350" stroke="#666"/>
<line x1="80" y1="350" x2="870" y2="350" stroke="#666"/>
<line x1="80" y1="30.0" x2="870" y2="30.0" stroke="#eee"/>
<text x="70" y="34.0" text-anchor="end" font-family="Arial" font-size="12">46</text>
<line x1="80" y1="110.0" x2="870" y2="110.0" stroke="#eee"/>
<text x="70" y="114.0" text-anchor="end" font-family="Arial" font-size="12">8284</text>
<line x1="80" y1="190.0" x2="870" y2="190.0" stroke="#eee"/>
<text x="70" y="194.0" text-anchor="end" font-family="Arial" font-size="12">16523</text>
<line x1="80" y1="270.0" x2="870" y2="270.0" stroke="#eee"/>
<text x="70" y="274.0" text-anchor="end" font-family="Arial" font-size="12">24762</text>
<line x1="80" y1="350.0" x2="870" y2="350.0" stroke="#eee"/>
<text x="70" y="354.0" text-anchor="end" font-family="Arial" font-size="12">33000</text>
<circle cx="80.0" cy="350.0" r="4" fill="#005bbb"/>
<text x="80.0" y="342.0" text-anchor="middle" font-family="Arial" font-size="11">33000</text>
<circle cx="728.6" cy="155.8" r="4" fill="#005bbb"/>
<text x="728.6" y="147.8" text-anchor="middle" font-family="Arial" font-size="11">13000</text>
<circle cx="731.7" cy="30.0" r="4" fill="#005bbb"/>
<text x="731.7" y="22.0" text-anchor="middle" font-family="Arial" font-size="11">46</text>
<circle cx="734.7" cy="30.0" r="4" fill="#005bbb"/>
<text x="734.7" y="22.0" text-anchor="middle" font-family="Arial" font-size="11">46</text>
<circle cx="737.8" cy="30.0" r="4" fill="#005bbb"/>
<text x="737.8" y="22.0" text-anchor="middle" font-family="Arial" font-size="11">46</text>
<circle cx="740.9" cy="30.0" r="4" fill="#005bbb"/>
<text x="740.9" y="22.0" text-anchor="middle" font-family="Arial" font-size="11">46</text>
<circle cx="744.0" cy="30.0" r="4" fill="#005bbb"/>
<text x="744.0" y="22.0" text-anchor="middle" font-family="Arial" font-size="11">46</text>
<circle cx="747.0" cy="30.0" r="4" fill="#005bbb"/>
<text x="747.0" y="22.0" text-anchor="middle" font-family="Arial" font-size="11">46</text>
<circle cx="750.1" cy="30.0" r="4" fill="#005bbb"/>
<text x="750.1" y="22.0" text-anchor="middle" font-family="Arial" font-size="11">46</text>
<circle cx="753.2" cy="30.0" r="4" fill="#005bbb"/>
<text x="753.2" y="22.0" text-anchor="middle" font-family="Arial" font-size="11">46</text>
<circle cx="756.3" cy="30.0" r="4" fill="#005bbb"/>
<text x="756.3" y="22.0" text-anchor="middle" font-family="Arial" font-size="11">46</text>
<circle cx="759.3" cy="30.0" r="4" fill="#005bbb"/>
<text x="759.3" y="22.0" text-anchor="middle" font-family="Arial" font-size="11">46</text>
<circle cx="762.4" cy="30.0" r="4" fill="#005bbb"/>
<text x="762.4" y="22.0" text-anchor="middle" font-family="Arial" font-size="11">46</text>
<circle cx="765.5" cy="30.0" r="4" fill="#005bbb"/>
<text x="765.5" y="22.0" text-anchor="middle" font-family="Arial" font-size="11">46</text>
<circle cx="768.6" cy="30.0" r="4" fill="#005bbb"/>
<text x="768.6" y="22.0" text-anchor="middle" font-family="Arial" font-size="11">46</text>
<circle cx="771.6" cy="30.0" r="4" fill="#005bbb"/>
<text x="771.6" y="22.0" text-anchor="middle" font-family="Arial" font-size="11">46</text>
<circle cx="774.7" cy="30.0" r="4" fill="#005bbb"/>
<text x="774.7" y="22.0" text-anchor="middle" font-family="Arial" font-size="11">46</text>
<circle cx="777.8" cy="30.0" r="4" fill="#005bbb"/>
<text x="777.8" y="22.0" text-anchor="middle" font-family="Arial" font-size="11">46</text>
<circle cx="780.9" cy="30.0" r="4" fill="#005bbb"/>
<text x="780.9" y="22.0" text-anchor="middle" font-family="Arial" font-size="11">46</text>
<circle cx="783.9" cy="30.0" r="4" fill="#005bbb"/>
<text x="783.9" y="22.0" text-anchor="middle" font-family="Arial" font-size="11">46</text>
<circle cx="787.0" cy="30.0" r="4" fill="#005bbb"/>
<text x="787.0" y="22.0" text-anchor="middle" font-family="Arial" font-size="11">46</text>
<circle cx="790.1" cy="30.0" r="4" fill="#005bbb"/>
<text x="790.1" y="22.0" text-anchor="middle" font-family="Arial" font-size="11">46</text>
<circle cx="793.2" cy="30.0" r="4" fill="#005bbb"/>
<text x="793.2" y="22.0" text-anchor="middle" font-family="Arial" font-size="11">46</text>
<circle cx="796.2" cy="30.0" r="4" fill="#005bbb"/>
<text x="796.2" y="22.0" text-anchor="middle" font-family="Arial" font-size="11">46</text>
<circle cx="799.3" cy="30.0" r="4" fill="#005bbb"/>
<text x="799.3" y="22.0" text-anchor="middle" font-family="Arial" font-size="11">46</text>
<circle cx="802.4" cy="30.0" r="4" fill="#005bbb"/>
<text x="802.4" y="22.0" text-anchor="middle" font-family="Arial" font-size="11">46</text>
<circle cx="805.4" cy="30.0" r="4" fill="#005bbb"/>
<text x="805.4" y="22.0" text-anchor="middle" font-family="Arial" font-size="11">46</text>
<circle cx="808.5" cy="30.0" r="4" fill="#005bbb"/>
<text x="808.5" y="22.0" text-anchor="middle" font-family="Arial" font-size="11">46</text>
<circle cx="811.6" cy="30.0" r="4" fill="#005bbb"/>
<text x="811.6" y="22.0" text-anchor="middle" font-family="Arial" font-size="11">46</text>
<circle cx="814.7" cy="30.0" r="4" fill="#005bbb"/>
<text x="814.7" y="22.0" text-anchor="middle" font-family="Arial" font-size="11">46</text>
<circle cx="817.7" cy="30.0" r="4" fill="#005bbb"/>
<text x="817.7" y="22.0" text-anchor="middle" font-family="Arial" font-size="11">46</text>
<circle cx="820.8" cy="30.0" r="4" fill="#005bbb"/>
<text x="820.8" y="22.0" text-anchor="middle" font-family="Arial" font-size="11">46</text>
<circle cx="823.9" cy="30.0" r="4" fill="#005bbb"/>
<text x="823.9" y="22.0" text-anchor="middle" font-family="Arial" font-size="11">46</text>
<circle cx="827.0" cy="30.0" r="4" fill="#005bbb"/>
<text x="827.0" y="22.0" text-anchor="middle" font-family="Arial" font-size="11">46</text>
<circle cx="830.0" cy="30.0" r="4" fill="#005bbb"/>
<text x="830.0" y="22.0" text-anchor="middle" font-family="Arial" font-size="11">46</text>
<circle cx="833.1" cy="30.0" r="4" fill="#005bbb"/>
<text x="833.1" y="22.0" text-anchor="middle" font-family="Arial" font-size="11">46</text>
<circle cx="836.2" cy="30.0" r="4" fill="#005bbb"/>
<text x="836.2" y="22.0" text-anchor="middle" font-family="Arial" font-size="11">46</text>
<circle cx="839.3" cy="30.0" r="4" fill="#005bbb"/>
<text x="839.3" y="22.0" text-anchor="middle" font-family="Arial" font-size="11">46</text>
<circle cx="842.3" cy="30.0" r="4" fill="#005bbb"/>
<text x="842.3" y="22.0" text-anchor="middle" font-family="Arial" font-size="11">46</text>
<circle cx="845.4" cy="30.0" r="4" fill="#005bbb"/>
<text x="845.4" y="22.0" text-anchor="middle" font-family="Arial" font-size="11">46</text>
<circle cx="848.5" cy="30.0" r="4" fill="#005bbb"/>
<text x="848.5" y="22.0" text-anchor="middle" font-family="Arial" font-size="11">46</text>
<circle cx="851.6" cy="30.0" r="4" fill="#005bbb"/>
<text x="851.6" y="22.0" text-anchor="middle" font-family="Arial" font-size="11">46</text>
<circle cx="854.6" cy="30.0" r="4" fill="#005bbb"/>
<text x="854.6" y="22.0" text-anchor="middle" font-family="Arial" font-size="11">46</text>
<circle cx="857.7" cy="30.0" r="4" fill="#005bbb"/>
<text x="857.7" y="22.0" text-anchor="middle" font-family="Arial" font-size="11">46</text>
<circle cx="860.8" cy="30.0" r="4" fill="#005bbb"/>
<text x="860.8" y="22.0" text-anchor="middle" font-family="Arial" font-size="11">46</text>
<circle cx="863.9" cy="30.0" r="4" fill="#005bbb"/>
<text x="863.9" y="22.0" text-anchor="middle" font-family="Arial" font-size="11">46</text>
<circle cx="866.9" cy="30.0" r="4" fill="#005bbb"/>
<text x="866.9" y="22.0" text-anchor="middle" font-family="Arial" font-size="11">46</text>
<circle cx="870.0" cy="30.0" r="4" fill="#005bbb"/>
<text x="870.0" y="22.0" text-anchor="middle" font-family="Arial" font-size="11">46</text>
<polyline points="80.0,350.0 728.6,155.8 731.7,30.0 734.7,30.0 737.8,30.0 740.9,30.0 744.0,30.0 747.0,30.0 750.1,30.0 753.2,30.0 756.3,30.0 759.3,30.0 762.4,30.0 765.5,30.0 768.6,30.0 771.6,30.0 774.7,30.0 777.8,30.0 780.9,30.0 783.9,30.0 787.0,30.0 790.1,30.0 793.2,30.0 796.2,30.0 799.3,30.0 802.4,30.0 805.4,30.0 808.5,30.0 811.6,30.0 814.7,30.0 817.7,30.0 820.8,30.0 823.9,30.0 827.0,30.0 830.0,30.0 833.1,30.0 836.2,30.0 839.3,30.0 842.3,30.0 845.4,30.0 848.5,30.0 851.6,30.0 854.6,30.0 857.7,30.0 860.8,30.0 863.9,30.0 866.9,30.0 870.0,30.0" fill="none" stroke="#005bbb" stroke-width="2"/>
<text x="80" y="400" font-family="Arial" font-size="12">2026-01-04</text>
<text x="870" y="400" text-anchor="end" font-family="Arial" font-size="12">2026-09-18</text>
</svg>